<mxfile host="Electron" agent="Mozilla/5.0 (Windows NT 10.0; Win64; x64) AppleWebKit/537.36 (KHTML, like Gecko) draw.io/24.7.8 Chrome/128.0.6613.36 Electron/32.0.1 Safari/537.36" version="24.7.8">
  <diagram name="Страница — 1" id="NM6Ik1fSFMjScErNoiav">
    <mxGraphModel dx="2849" dy="1906" grid="1" gridSize="10" guides="1" tooltips="1" connect="1" arrows="1" fold="1" page="1" pageScale="1" pageWidth="827" pageHeight="1169" math="0" shadow="0">
      <root>
        <mxCell id="0" />
        <mxCell id="1" parent="0" />
        <mxCell id="hx_9CwhOzaziiIJ1zDUO-1" value="" style="shape=umlLifeline;perimeter=lifelinePerimeter;whiteSpace=wrap;html=1;container=1;dropTarget=0;collapsible=0;recursiveResize=0;outlineConnect=0;portConstraint=eastwest;newEdgeStyle={&quot;curved&quot;:0,&quot;rounded&quot;:0};participant=umlActor;" parent="1" vertex="1">
          <mxGeometry x="-855" y="-392" width="20" height="352" as="geometry" />
        </mxCell>
        <mxCell id="hx_9CwhOzaziiIJ1zDUO-2" value=":Front" style="shape=umlLifeline;perimeter=lifelinePerimeter;whiteSpace=wrap;html=1;container=1;dropTarget=0;collapsible=0;recursiveResize=0;outlineConnect=0;portConstraint=eastwest;newEdgeStyle={&quot;curved&quot;:0,&quot;rounded&quot;:0};" parent="1" vertex="1">
          <mxGeometry x="-680" y="-400" width="100" height="360" as="geometry" />
        </mxCell>
        <mxCell id="hx_9CwhOzaziiIJ1zDUO-3" value="" style="html=1;points=[[0,0,0,0,5],[0,1,0,0,-5],[1,0,0,0,5],[1,1,0,0,-5]];perimeter=orthogonalPerimeter;outlineConnect=0;targetShapes=umlLifeline;portConstraint=eastwest;newEdgeStyle={&quot;curved&quot;:0,&quot;rounded&quot;:0};fillColor=#A136FF;fontStyle=1" parent="hx_9CwhOzaziiIJ1zDUO-2" vertex="1">
          <mxGeometry x="45" y="60" width="10" height="20" as="geometry" />
        </mxCell>
        <mxCell id="hx_9CwhOzaziiIJ1zDUO-26" value="" style="html=1;points=[[0,0,0,0,5],[0,1,0,0,-5],[1,0,0,0,5],[1,1,0,0,-5]];perimeter=orthogonalPerimeter;outlineConnect=0;targetShapes=umlLifeline;portConstraint=eastwest;newEdgeStyle={&quot;curved&quot;:0,&quot;rounded&quot;:0};fillColor=#A136FF;" parent="hx_9CwhOzaziiIJ1zDUO-2" vertex="1">
          <mxGeometry x="45" y="120" width="10" height="10" as="geometry" />
        </mxCell>
        <mxCell id="hx_9CwhOzaziiIJ1zDUO-33" value="" style="html=1;points=[[0,0,0,0,5],[0,1,0,0,-5],[1,0,0,0,5],[1,1,0,0,-5]];perimeter=orthogonalPerimeter;outlineConnect=0;targetShapes=umlLifeline;portConstraint=eastwest;newEdgeStyle={&quot;curved&quot;:0,&quot;rounded&quot;:0};fillColor=#A136FF;fontStyle=1" parent="hx_9CwhOzaziiIJ1zDUO-2" vertex="1">
          <mxGeometry x="45" y="150" width="10" height="10" as="geometry" />
        </mxCell>
        <mxCell id="hx_9CwhOzaziiIJ1zDUO-4" value="" style="html=1;points=[[0,0,0,0,5],[0,1,0,0,-5],[1,0,0,0,5],[1,1,0,0,-5]];perimeter=orthogonalPerimeter;outlineConnect=0;targetShapes=umlLifeline;portConstraint=eastwest;newEdgeStyle={&quot;curved&quot;:0,&quot;rounded&quot;:0};fillColor=#A136FF;" parent="hx_9CwhOzaziiIJ1zDUO-2" vertex="1">
          <mxGeometry x="45" y="340" width="10" height="10" as="geometry" />
        </mxCell>
        <mxCell id="hx_9CwhOzaziiIJ1zDUO-5" value=":Back" style="shape=umlLifeline;perimeter=lifelinePerimeter;whiteSpace=wrap;html=1;container=1;dropTarget=0;collapsible=0;recursiveResize=0;outlineConnect=0;portConstraint=eastwest;newEdgeStyle={&quot;curved&quot;:0,&quot;rounded&quot;:0};" parent="1" vertex="1">
          <mxGeometry x="-480" y="-400" width="100" height="360" as="geometry" />
        </mxCell>
        <mxCell id="hx_9CwhOzaziiIJ1zDUO-6" value="" style="html=1;points=[[0,0,0,0,5],[0,1,0,0,-5],[1,0,0,0,5],[1,1,0,0,-5]];perimeter=orthogonalPerimeter;outlineConnect=0;targetShapes=umlLifeline;portConstraint=eastwest;newEdgeStyle={&quot;curved&quot;:0,&quot;rounded&quot;:0};fillColor=#A136FF;" parent="hx_9CwhOzaziiIJ1zDUO-5" vertex="1">
          <mxGeometry x="45" y="80" width="10" height="40" as="geometry" />
        </mxCell>
        <mxCell id="hx_9CwhOzaziiIJ1zDUO-7" value="Обработка запроса" style="html=1;align=left;spacingLeft=2;endArrow=block;rounded=0;edgeStyle=orthogonalEdgeStyle;curved=0;rounded=0;" parent="hx_9CwhOzaziiIJ1zDUO-5" target="hx_9CwhOzaziiIJ1zDUO-6" edge="1">
          <mxGeometry relative="1" as="geometry">
            <mxPoint x="55" y="80.05999999999997" as="sourcePoint" />
            <Array as="points">
              <mxPoint x="85" y="80" />
              <mxPoint x="85" y="110" />
            </Array>
            <mxPoint x="60" y="110.0644827586207" as="targetPoint" />
          </mxGeometry>
        </mxCell>
        <mxCell id="hx_9CwhOzaziiIJ1zDUO-8" value="" style="html=1;points=[[0,0,0,0,5],[0,1,0,0,-5],[1,0,0,0,5],[1,1,0,0,-5]];perimeter=orthogonalPerimeter;outlineConnect=0;targetShapes=umlLifeline;portConstraint=eastwest;newEdgeStyle={&quot;curved&quot;:0,&quot;rounded&quot;:0};fillColor=#A136FF;" parent="hx_9CwhOzaziiIJ1zDUO-5" vertex="1">
          <mxGeometry x="45" y="300" width="10" height="40" as="geometry" />
        </mxCell>
        <mxCell id="hx_9CwhOzaziiIJ1zDUO-43" value="" style="html=1;points=[[0,0,0,0,5],[0,1,0,0,-5],[1,0,0,0,5],[1,1,0,0,-5]];perimeter=orthogonalPerimeter;outlineConnect=0;targetShapes=umlLifeline;portConstraint=eastwest;newEdgeStyle={&quot;curved&quot;:0,&quot;rounded&quot;:0};fillColor=#A136FF;fontStyle=1" parent="hx_9CwhOzaziiIJ1zDUO-5" vertex="1">
          <mxGeometry x="45" y="160" width="10" height="50" as="geometry" />
        </mxCell>
        <mxCell id="hx_9CwhOzaziiIJ1zDUO-45" value="Обработка запроса" style="html=1;align=left;spacingLeft=2;endArrow=block;rounded=0;edgeStyle=orthogonalEdgeStyle;curved=0;rounded=0;" parent="hx_9CwhOzaziiIJ1zDUO-5" target="hx_9CwhOzaziiIJ1zDUO-43" edge="1">
          <mxGeometry relative="1" as="geometry">
            <mxPoint x="55" y="160" as="sourcePoint" />
            <Array as="points">
              <mxPoint x="85" y="160" />
              <mxPoint x="85" y="190" />
            </Array>
            <mxPoint x="60" y="190" as="targetPoint" />
          </mxGeometry>
        </mxCell>
        <mxCell id="hx_9CwhOzaziiIJ1zDUO-9" value=":База данных" style="shape=umlLifeline;perimeter=lifelinePerimeter;whiteSpace=wrap;html=1;container=1;dropTarget=0;collapsible=0;recursiveResize=0;outlineConnect=0;portConstraint=eastwest;newEdgeStyle={&quot;curved&quot;:0,&quot;rounded&quot;:0};" parent="1" vertex="1">
          <mxGeometry x="-20" y="-400" width="100" height="360" as="geometry" />
        </mxCell>
        <mxCell id="hx_9CwhOzaziiIJ1zDUO-10" value="" style="html=1;points=[[0,0,0,0,5],[0,1,0,0,-5],[1,0,0,0,5],[1,1,0,0,-5]];perimeter=orthogonalPerimeter;outlineConnect=0;targetShapes=umlLifeline;portConstraint=eastwest;newEdgeStyle={&quot;curved&quot;:0,&quot;rounded&quot;:0};fillColor=#A136FF;" parent="hx_9CwhOzaziiIJ1zDUO-9" vertex="1">
          <mxGeometry x="45" y="280" width="10" height="50" as="geometry" />
        </mxCell>
        <mxCell id="_8cwaNAm6ay8hhpDXrDw-3" value="Добавление пользователя" style="html=1;align=left;spacingLeft=2;endArrow=block;rounded=0;edgeStyle=orthogonalEdgeStyle;curved=0;rounded=0;" parent="hx_9CwhOzaziiIJ1zDUO-9" edge="1">
          <mxGeometry relative="1" as="geometry">
            <mxPoint x="50" y="280" as="sourcePoint" />
            <Array as="points">
              <mxPoint x="80" y="310" />
            </Array>
            <mxPoint x="55" y="310" as="targetPoint" />
          </mxGeometry>
        </mxCell>
        <mxCell id="hx_9CwhOzaziiIJ1zDUO-16" value=":Радиовещатель" style="text;html=1;align=center;verticalAlign=middle;resizable=0;points=[];autosize=1;strokeColor=none;fillColor=none;" parent="1" vertex="1">
          <mxGeometry x="-905" y="-422" width="120" height="30" as="geometry" />
        </mxCell>
        <mxCell id="hx_9CwhOzaziiIJ1zDUO-17" value="Нажимает на кнопку входа/регистрации" style="html=1;verticalAlign=bottom;endArrow=block;curved=0;rounded=0;" parent="1" source="hx_9CwhOzaziiIJ1zDUO-23" target="hx_9CwhOzaziiIJ1zDUO-3" edge="1">
          <mxGeometry width="80" relative="1" as="geometry">
            <mxPoint x="-740" y="-300" as="sourcePoint" />
            <mxPoint x="-660" y="-300" as="targetPoint" />
            <Array as="points">
              <mxPoint x="-690" y="-340" />
            </Array>
          </mxGeometry>
        </mxCell>
        <mxCell id="hx_9CwhOzaziiIJ1zDUO-18" value="Запрос на вход/регистрацию" style="html=1;verticalAlign=bottom;endArrow=block;curved=0;rounded=0;" parent="1" source="hx_9CwhOzaziiIJ1zDUO-3" target="hx_9CwhOzaziiIJ1zDUO-5" edge="1">
          <mxGeometry width="80" relative="1" as="geometry">
            <mxPoint x="-520" y="-340" as="sourcePoint" />
            <mxPoint x="-485" y="-320.0000000000002" as="targetPoint" />
            <Array as="points">
              <mxPoint x="-560" y="-320" />
            </Array>
          </mxGeometry>
        </mxCell>
        <mxCell id="hx_9CwhOzaziiIJ1zDUO-21" value="Запрос на отображение результата" style="html=1;verticalAlign=bottom;endArrow=block;curved=0;rounded=0;" parent="1" source="hx_9CwhOzaziiIJ1zDUO-8" target="hx_9CwhOzaziiIJ1zDUO-4" edge="1">
          <mxGeometry width="80" relative="1" as="geometry">
            <mxPoint x="-590" y="-220" as="sourcePoint" />
            <mxPoint x="-510" y="-220" as="targetPoint" />
            <Array as="points">
              <mxPoint x="-480" y="-60" />
              <mxPoint x="-530" y="-60" />
              <mxPoint x="-590" y="-60" />
            </Array>
          </mxGeometry>
        </mxCell>
        <mxCell id="hx_9CwhOzaziiIJ1zDUO-22" value="Успешная регистрация/вход" style="html=1;verticalAlign=bottom;endArrow=block;curved=0;rounded=0;" parent="1" source="hx_9CwhOzaziiIJ1zDUO-4" target="hx_9CwhOzaziiIJ1zDUO-23" edge="1">
          <mxGeometry width="80" relative="1" as="geometry">
            <mxPoint x="-750" y="-260" as="sourcePoint" />
            <mxPoint x="-670" y="-260" as="targetPoint" />
            <Array as="points">
              <mxPoint x="-730" y="-50" />
            </Array>
          </mxGeometry>
        </mxCell>
        <mxCell id="hx_9CwhOzaziiIJ1zDUO-23" value="" style="html=1;points=[[0,0,0,0,5],[0,1,0,0,-5],[1,0,0,0,5],[1,1,0,0,-5]];perimeter=orthogonalPerimeter;outlineConnect=0;targetShapes=umlLifeline;portConstraint=eastwest;newEdgeStyle={&quot;curved&quot;:0,&quot;rounded&quot;:0};fillColor=#7AFFFF;" parent="1" vertex="1">
          <mxGeometry x="-850" y="-352" width="10" height="302" as="geometry" />
        </mxCell>
        <mxCell id="hx_9CwhOzaziiIJ1zDUO-27" value="Запрос на отображение окна&lt;br&gt;входа/регистрации" style="html=1;verticalAlign=bottom;endArrow=block;curved=0;rounded=0;" parent="1" source="hx_9CwhOzaziiIJ1zDUO-6" target="hx_9CwhOzaziiIJ1zDUO-26" edge="1">
          <mxGeometry width="80" relative="1" as="geometry">
            <mxPoint x="-440" y="-280" as="sourcePoint" />
            <mxPoint x="-630" y="-280" as="targetPoint" />
            <Array as="points">
              <mxPoint x="-500" y="-280" />
              <mxPoint x="-555" y="-280" />
            </Array>
          </mxGeometry>
        </mxCell>
        <mxCell id="hx_9CwhOzaziiIJ1zDUO-32" value="Запрос на ввод данных профиля" style="html=1;verticalAlign=bottom;endArrow=block;curved=0;rounded=0;" parent="1" source="hx_9CwhOzaziiIJ1zDUO-26" target="hx_9CwhOzaziiIJ1zDUO-23" edge="1">
          <mxGeometry width="80" relative="1" as="geometry">
            <mxPoint x="-785" y="-270" as="sourcePoint" />
            <mxPoint x="-705" y="-270" as="targetPoint" />
            <Array as="points">
              <mxPoint x="-730" y="-270" />
            </Array>
          </mxGeometry>
        </mxCell>
        <mxCell id="hx_9CwhOzaziiIJ1zDUO-34" value="Ввод данных профиля" style="html=1;verticalAlign=bottom;endArrow=block;curved=0;rounded=0;" parent="1" source="hx_9CwhOzaziiIJ1zDUO-23" target="hx_9CwhOzaziiIJ1zDUO-33" edge="1">
          <mxGeometry width="80" relative="1" as="geometry">
            <mxPoint x="-840" y="-250" as="sourcePoint" />
            <mxPoint x="-760" y="-250" as="targetPoint" />
            <Array as="points">
              <mxPoint x="-740" y="-250" />
            </Array>
          </mxGeometry>
        </mxCell>
        <mxCell id="hx_9CwhOzaziiIJ1zDUO-42" value="Запрос на проверку данных" style="html=1;verticalAlign=bottom;endArrow=block;curved=0;rounded=0;" parent="1" source="hx_9CwhOzaziiIJ1zDUO-33" target="hx_9CwhOzaziiIJ1zDUO-43" edge="1">
          <mxGeometry width="80" relative="1" as="geometry">
            <mxPoint x="-580" y="-290" as="sourcePoint" />
            <mxPoint x="-490" y="-250" as="targetPoint" />
            <Array as="points">
              <mxPoint x="-530" y="-240" />
            </Array>
          </mxGeometry>
        </mxCell>
        <mxCell id="hx_9CwhOzaziiIJ1zDUO-46" value="Запрос на поиск пользователя" style="html=1;verticalAlign=bottom;endArrow=block;curved=0;rounded=0;" parent="1" source="hx_9CwhOzaziiIJ1zDUO-43" target="hx_9CwhOzaziiIJ1zDUO-51" edge="1">
          <mxGeometry width="80" relative="1" as="geometry">
            <mxPoint x="-380" y="-190" as="sourcePoint" />
            <mxPoint x="-270" y="-190" as="targetPoint" />
          </mxGeometry>
        </mxCell>
        <mxCell id="hx_9CwhOzaziiIJ1zDUO-50" value=":Система регистрации пользователей" style="shape=umlLifeline;perimeter=lifelinePerimeter;whiteSpace=wrap;html=1;container=1;dropTarget=0;collapsible=0;recursiveResize=0;outlineConnect=0;portConstraint=eastwest;newEdgeStyle={&quot;curved&quot;:0,&quot;rounded&quot;:0};" parent="1" vertex="1">
          <mxGeometry x="-300" y="-400" width="100" height="360" as="geometry" />
        </mxCell>
        <mxCell id="hx_9CwhOzaziiIJ1zDUO-51" value="" style="html=1;points=[[0,0,0,0,5],[0,1,0,0,-5],[1,0,0,0,5],[1,1,0,0,-5]];perimeter=orthogonalPerimeter;outlineConnect=0;targetShapes=umlLifeline;portConstraint=eastwest;newEdgeStyle={&quot;curved&quot;:0,&quot;rounded&quot;:0};fillColor=#A136FF;" parent="hx_9CwhOzaziiIJ1zDUO-50" vertex="1">
          <mxGeometry x="45" y="210" width="10" height="90" as="geometry" />
        </mxCell>
        <mxCell id="hx_9CwhOzaziiIJ1zDUO-58" value="Поиск пользователя" style="html=1;align=left;spacingLeft=2;endArrow=block;rounded=0;edgeStyle=orthogonalEdgeStyle;curved=0;rounded=0;" parent="hx_9CwhOzaziiIJ1zDUO-50" target="hx_9CwhOzaziiIJ1zDUO-51" edge="1">
          <mxGeometry relative="1" as="geometry">
            <mxPoint x="55" y="210" as="sourcePoint" />
            <Array as="points">
              <mxPoint x="85" y="210" />
              <mxPoint x="85" y="240" />
            </Array>
            <mxPoint x="60" y="240" as="targetPoint" />
            <mxPoint as="offset" />
          </mxGeometry>
        </mxCell>
        <mxCell id="_8cwaNAm6ay8hhpDXrDw-1" value="Если пользователя не существует, &lt;br&gt;то отправить запрос на добавление пользователя" style="html=1;verticalAlign=bottom;endArrow=block;curved=0;rounded=0;" parent="1" source="hx_9CwhOzaziiIJ1zDUO-51" target="hx_9CwhOzaziiIJ1zDUO-10" edge="1">
          <mxGeometry width="80" relative="1" as="geometry">
            <mxPoint x="-220" y="-140" as="sourcePoint" />
            <mxPoint x="-140" y="-140" as="targetPoint" />
          </mxGeometry>
        </mxCell>
        <mxCell id="_8cwaNAm6ay8hhpDXrDw-4" value="Возвращение результата" style="html=1;verticalAlign=bottom;endArrow=block;curved=0;rounded=0;" parent="1" source="hx_9CwhOzaziiIJ1zDUO-51" target="hx_9CwhOzaziiIJ1zDUO-8" edge="1">
          <mxGeometry width="80" relative="1" as="geometry">
            <mxPoint x="-380" y="-120" as="sourcePoint" />
            <mxPoint x="-300" y="-120" as="targetPoint" />
          </mxGeometry>
        </mxCell>
        <mxCell id="_8cwaNAm6ay8hhpDXrDw-5" value="Возвращение результата" style="html=1;verticalAlign=bottom;endArrow=block;curved=0;rounded=0;" parent="1" source="hx_9CwhOzaziiIJ1zDUO-10" target="hx_9CwhOzaziiIJ1zDUO-8" edge="1">
          <mxGeometry width="80" relative="1" as="geometry">
            <mxPoint x="-210" y="-70" as="sourcePoint" />
            <mxPoint x="-130" y="-70" as="targetPoint" />
            <Array as="points">
              <mxPoint x="-200" y="-70" />
            </Array>
          </mxGeometry>
        </mxCell>
      </root>
    </mxGraphModel>
  </diagram>
</mxfile>
